<?xml version="1.0" encoding="utf-8"?>
<!-- Generator: Adobe Illustrator 27.9.0, SVG Export Plug-In . SVG Version: 6.00 Build 0)  -->
<svg version="1.1" id="Layer_2_00000071524795432149056460000004728830646296398270_"
	 xmlns="http://www.w3.org/2000/svg" xmlns:xlink="http://www.w3.org/1999/xlink" x="0px" y="0px" viewBox="0 0 274.1 290"
	 style="enable-background:new 0 0 274.1 290;" xml:space="preserve">
<style type="text/css">
	.st0{fill:none;stroke:#000000;stroke-miterlimit:10;}
	.st1{enable-background:new    ;}
</style>
<path class="st0" d="M217,289.5H9c-5.5,0-9.3-4.5-8.3-10l44.8-269c1.1-5.7,5.9-9.8,11.7-10h208c5.5,0,9.3,4.5,8.3,10l-44.8,269
	C227.6,285.2,222.7,289.3,217,289.5z"/>
<g id="Layer_3">
	<g class="st1">
		<path class="st0" d="M96.7,220.8c-6.2-4.6-11.1-11.4-14.6-20.3c-3.5-8.9-5.3-19.7-5.3-32.1c0-18.2,4.1-32.6,12.2-43.2
			c8.1-10.6,19.5-16,34.2-16c8.7,0,16.1,2.3,22.4,6.8V67.2c0-4.7,4.4-7,13.2-7h6.2c8.8,0,13.2,2.3,13.2,7v120.1
			c0,6.7,0.2,11.9,0.5,15.4c0.4,3.5,0.8,7.4,1.4,11.7c0.4,1.9,0.7,3.5,0.7,4.8c0,2.3-3,4.1-8.9,5.3c-5.9,1.2-11.2,1.8-15.7,1.8
			c-2.6,0-4.5-1.1-5.5-3.2c-1-2.1-1.8-4.4-2.3-6.8c-0.5-2.4-0.8-4.1-1-5c-2.6,4.8-6.6,8.8-11.8,11.9c-5.2,3.1-11.1,4.6-17.7,4.6
			C110,227.8,102.9,225.5,96.7,220.8z M145.7,188.2v-49.1c-5-2.8-10.1-4.2-15.4-4.2c-13.6,0-20.5,11.1-20.5,33.4
			c0,21.9,5.9,32.8,17.8,32.8C134.6,201.1,140.7,196.8,145.7,188.2z"/>
	</g>
</g>
</svg>
