<svg id="Layer_1" data-name="Layer 1" xmlns="http://www.w3.org/2000/svg" viewBox="0 0 1000 218.87"><defs><style>.cls-1{fill:#e0644f;}.cls-1,.cls-2{fill-rule:evenodd;}.cls-2{fill:#fff;}</style></defs><g id="Page-1"><g id="Mobile-Portrait"><g id="devanooga_logo" data-name="devanooga logo"><path id="Rectangle" class="cls-1" d="M194.53,281.2c.75-5.75,6.26-10.41,12.29-10.41h952c6,0,10.32,4.68,9.56,10.41l-25.94,198.06c-.75,5.75-6.26,10.41-12.29,10.41h-952c-6,0-10.32-4.67-9.56-10.41Z" transform="translate(-168.5 -270.79)"/><path id="devanooga" class="cls-2" d="M359.86,309.34v91.05q0,7.67.42,11.67t1.1,8.84a17.06,17.06,0,0,1,.5,3.67q0,2.67-6.81,4a63.38,63.38,0,0,1-12,1.34,4.28,4.28,0,0,1-4.2-2.42,22.67,22.67,0,0,1-1.76-5.17c-.4-1.84-.65-3.09-.76-3.75a23.61,23.61,0,0,1-9,9,26.2,26.2,0,0,1-13.54,3.5,26.71,26.71,0,0,1-16.22-5.25q-7.14-5.25-11.17-15.43t-4-24.34q0-20.68,9.33-32.77t26.14-12.09A28.69,28.69,0,0,1,335,346.36v-37q0-5.34,10.08-5.34h4.71Q359.86,304,359.86,309.34Zm-52.27,76.71q0,24.84,13.61,24.85,8.07,0,13.79-9.84V363.87a24.06,24.06,0,0,0-11.77-3.17Q307.59,360.7,307.59,386.05ZM445.68,353.2q8.82,12,8.82,31,0,2-3.44,5.92c-2.3,2.62-4,3.92-5.13,3.92H403.06q.84,9.51,5.72,13.51t13.61,4a31.88,31.88,0,0,0,8.58-1.08,82.12,82.12,0,0,0,8.07-2.75,10.65,10.65,0,0,1,3.69-1.34q1.69,0,3.79,2.42a23.53,23.53,0,0,1,3.53,5.5,12.6,12.6,0,0,1,1.43,4.76c0,2.55-1.74,4.75-5.22,6.58a43.31,43.31,0,0,1-12.43,4.09,70.69,70.69,0,0,1-12.61,1.33q-22.19,0-33-11.75t-10.84-32.61q0-23.5,10.84-34.51t30-11Q436.85,341.19,445.68,353.2Zm-42.62,24.34H430.3q0-7.67-3-12.25t-9.08-4.59Q405.76,360.7,403.06,377.54ZM540.9,345.86a12.05,12.05,0,0,1-.5,3l-26.73,77.71q-1.17,3.51-9.41,3.5h-5.38q-8.24,0-9.41-3.5l-26.73-77.71a14.83,14.83,0,0,1-.67-3q0-3.67,10.25-3.67h5.55q8.24,0,9.41,3.5l9.92,30.85q.84,2.83,3.19,13.51l1.51,6.67h.68q3-14.67,4.7-20.18l9.92-30.85q1.18-3.49,9.41-3.5h4.21Q540.9,342.19,540.9,345.86Zm88.42,73.21a35.17,35.17,0,0,1-.67,6.17,5.55,5.55,0,0,1-3.78,4.17,16.71,16.71,0,0,1-6.31,1.33q-15.12,0-15.13-16.34v-1.67q-4.87,9.34-11.68,13.67a26.6,26.6,0,0,1-14.54,4.34,27.86,27.86,0,0,1-12.77-3.25q-6.39-3.25-10.85-11.26t-4.45-21.51q0-15.51,5.13-27.6t14.45-18.84a35.83,35.83,0,0,1,21.6-6.76q11.77,0,21.35,9a24.54,24.54,0,0,1,2.94-6.42,5.41,5.41,0,0,1,4.63-1.92h1a5,5,0,0,1,3.28.83,3.43,3.43,0,0,1,.93,2.67q-1,9.68-3.87,36.52t-2.86,29.69q0,4.5,1.6,5.67a7.47,7.47,0,0,0,4.45,1.16,8.83,8.83,0,0,0,2.53-.41,7.43,7.43,0,0,1,2-.42C629,417.9,629.32,418.29,629.32,419.07ZM609.15,360.2q-8.24-6.51-17.48-6.5-15.3,0-21.6,11.25t-6.31,28.77q0,13.33,4.54,19.09a14.64,14.64,0,0,0,12.11,5.76q6.72,0,13.61-6.59t11.6-21.6q.68-8,1.34-14t.84-7.84Q608.15,365.54,609.15,360.2Zm116,58.87a36.16,36.16,0,0,1-.67,6.17,5.55,5.55,0,0,1-3.79,4.17,16.63,16.63,0,0,1-6.3,1.33q-15.13,0-15.13-16.34,0-3.67,2.86-29.19Q704,368.38,704,366.54q0-12.84-12.78-12.84-6.88,0-14.37,6.17T664.5,380.54q-1.69,16.18-3,28.94t-1.85,16.92q-.51,3.68-7.06,3.67h-.67c-4.26,0-6.39-1.16-6.39-3.5q1.17-10.33,4.29-39.27t3.11-33.77c0-2,0-3.36-.09-4.09s-.08-1.25-.08-1.58q0-2.34,3.36-3.09a28.08,28.08,0,0,1,6-.75q4.38,0,4.37,11.18v3.17q12.45-16.85,29.76-16.85,11.6,0,16.89,5.84t5.29,15.84q-.16,2.67-.84,8.76t-1.34,13.59q-2.68,23.67-2.69,26.35,0,4.5,1.6,5.67a7.47,7.47,0,0,0,4.45,1.16,8.71,8.71,0,0,0,2.52-.41,7.56,7.56,0,0,1,2-.42C724.84,417.9,725.18,418.29,725.18,419.07ZM810,350.78q8.65,9.25,8.66,26.93,0,25.52-11.52,39.27t-31.85,13.76q-17.14,0-26-9.17t-8.83-26.68a72.66,72.66,0,0,1,4.71-26.6,42.94,42.94,0,0,1,14.63-19.43q9.91-7.33,25-7.34Q801.32,341.52,810,350.78Zm-47.82,13.59q-7.23,10.85-7.23,30,0,12.33,5.21,18.34t16,6q13.46,0,20.68-10.42T804,378q0-12.5-5.12-18.51t-15.89-6Q769.4,353.53,762.16,364.37Zm143.47-13.59q8.65,9.25,8.66,26.93,0,25.52-11.52,39.27t-31.85,13.76q-17.14,0-26-9.17t-8.83-26.68a72.66,72.66,0,0,1,4.71-26.6,43,43,0,0,1,14.62-19.43q9.91-7.33,25-7.34Q897,341.52,905.63,350.78Zm-47.82,13.59q-7.23,10.85-7.23,30,0,12.33,5.21,18.34t16,6q13.44,0,20.67-10.42T899.66,378q0-12.5-5.13-18.51t-15.88-6Q865,353.53,857.81,364.37ZM1007.33,343a3.47,3.47,0,0,1,.92,2.67L1001,413.23q-2,19.68-7.06,31t-13.28,16.09q-8.23,4.76-20.67,4.75a55.32,55.32,0,0,1-14.71-1.83,31.19,31.19,0,0,1-10.42-4.67q-3.78-2.83-3.78-5.34,0-9.17,2.35-9.17c.33,0,1.71.83,4.12,2.5a39.67,39.67,0,0,0,9.16,4.5,39.07,39.07,0,0,0,13.28,2q12.43,0,19-9.68t8.24-31.68q-5,9.33-12,13.67a28,28,0,0,1-15,4.34,30.5,30.5,0,0,1-13.2-3.17q-6.65-3.17-11.18-11t-4.54-20.84q0-15.51,5.21-27.6a43.71,43.71,0,0,1,14.71-18.84,37.11,37.11,0,0,1,22.11-6.76q12.27,0,22.19,9a24.21,24.21,0,0,1,2.94-6.42,5.37,5.37,0,0,1,4.62-1.92h1A5,5,0,0,1,1007.33,343ZM993,360.2q-8.73-6.51-18.32-6.5-15.79,0-22.27,11.25t-6.47,28.77q0,12.67,4.79,18.26a15.9,15.9,0,0,0,12.69,5.59q6.89,0,14-6.67t12-21.85l2.19-20.51Q991.94,365.54,993,360.2Zm109.94,58.87a35.17,35.17,0,0,1-.67,6.17,5.55,5.55,0,0,1-3.79,4.17,16.63,16.63,0,0,1-6.3,1.33q-15.12,0-15.13-16.34v-1.67q-4.87,9.34-11.68,13.67a26.62,26.62,0,0,1-14.54,4.34,27.93,27.93,0,0,1-12.78-3.25q-6.37-3.25-10.84-11.26t-4.45-21.51q0-15.51,5.12-27.6t14.46-18.84a35.83,35.83,0,0,1,21.6-6.76q11.77,0,21.35,9a24.54,24.54,0,0,1,2.94-6.42,5.37,5.37,0,0,1,4.62-1.92h1a5,5,0,0,1,3.28.83,3.43,3.43,0,0,1,.92,2.67q-1,9.68-3.86,36.52t-2.86,29.69q0,4.5,1.6,5.67a7.47,7.47,0,0,0,4.45,1.16,8.71,8.71,0,0,0,2.52-.41,7.56,7.56,0,0,1,2-.42C1102.55,417.9,1102.89,418.29,1102.89,419.07Zm-20.17-58.87q-8.23-6.51-17.48-6.5-15.3,0-21.6,11.25t-6.31,28.77q0,13.33,4.54,19.09a14.63,14.63,0,0,0,12.1,5.76q6.73,0,13.62-6.59t11.6-21.6q.68-8,1.34-14t.84-7.84Q1081.71,365.54,1082.72,360.2Z" transform="translate(-168.5 -270.79)"/></g></g></g></svg>