<?xml version="1.0" encoding="UTF-8"?>
<svg id="Layer_2" data-name="Layer 2" xmlns="http://www.w3.org/2000/svg" viewBox="0 0 273.11 289">
  <defs>
    <style>
      .cls-1 {
        fill: #e0644f;
        fill-rule: evenodd;
      }

      .cls-1, .cls-2 {
        stroke-width: 0px;
      }

      .cls-2 {
        fill: #fff;
      }
    </style>
  </defs>
  <path class="cls-1" d="m264.64,0H56.64c-5.52,0-10.75,4.48-11.67,10L.14,279c-.92,5.52,2.81,10,8.33,10h208c5.52,0,10.75-4.48,11.67-10L272.97,10c.92-5.52-2.81-10-8.33-10Z"/>
  <g id="Layer_3" data-name="Layer 3">
    <path class="cls-2" d="m96.2,220.33c-6.24-4.62-11.11-11.4-14.63-20.35-3.52-8.94-5.28-19.65-5.28-32.12,0-18.18,4.07-32.59,12.21-43.23,8.14-10.63,19.54-15.95,34.21-15.95,8.65,0,16.13,2.28,22.44,6.82v-48.84c0-4.69,4.4-7.04,13.2-7.04h6.16c8.8,0,13.2,2.35,13.2,7.04v120.12c0,6.75.18,11.88.55,15.4.36,3.52.84,7.41,1.43,11.66.44,1.91.66,3.52.66,4.84,0,2.35-2.97,4.11-8.91,5.28-5.94,1.18-11.19,1.76-15.73,1.76-2.64,0-4.47-1.06-5.5-3.19-1.03-2.12-1.8-4.4-2.31-6.82-.52-2.42-.85-4.07-.99-4.95-2.64,4.84-6.57,8.8-11.77,11.88-5.21,3.08-11.11,4.62-17.71,4.62-7.92,0-15-2.31-21.23-6.93Zm48.95-32.67v-49.06c-4.99-2.78-10.12-4.18-15.4-4.18-13.64,0-20.46,11.15-20.46,33.44s5.94,32.78,17.82,32.78c7.04,0,13.05-4.32,18.04-12.98Z"/>
  </g>
</svg>